<svg width="579" height="141" viewBox="0 0 579 141" fill="none" xmlns="http://www.w3.org/2000/svg">
<circle cx="70.5" cy="70.5" r="70.5" fill="black"/>
<path d="M20.2061 69.6992L47.7158 80.8174V89.4307L11.7686 72.7754V66.3594L47.7158 49.748V58.3613L20.2061 69.6992Z" fill="white"/>
<path d="M118.926 75.4355L89.8779 64.0537V55.7041L127.407 72.3154V78.7314L89.8779 95.3867V86.9492L118.926 75.4355Z" fill="white"/>
<path d="M61.2334 106.493H54.2461L80.9648 37.0156H87.9082L61.2334 106.493Z" fill="white"/>
<path d="M165.738 91.576C165.738 87.3827 166.577 83.7073 168.254 80.55C169.981 77.3433 172.349 74.8767 175.358 73.15C178.367 71.4233 181.821 70.56 185.718 70.56C190.651 70.56 194.721 71.744 197.928 74.112C201.184 76.4307 203.379 79.7607 204.514 84.102H195.412C194.672 82.0793 193.488 80.5007 191.86 79.366C190.232 78.2313 188.185 77.664 185.718 77.664C182.265 77.664 179.502 78.8973 177.43 81.364C175.407 83.7813 174.396 87.1853 174.396 91.576C174.396 95.9667 175.407 99.3953 177.43 101.862C179.502 104.329 182.265 105.562 185.718 105.562C190.602 105.562 193.833 103.416 195.412 99.124H204.514C203.33 103.268 201.11 106.573 197.854 109.04C194.598 111.457 190.553 112.666 185.718 112.666C181.821 112.666 178.367 111.803 175.358 110.076C172.349 108.3 169.981 105.833 168.254 102.676C166.577 99.4693 165.738 95.7693 165.738 91.576ZM230.607 112.666C226.759 112.666 223.281 111.803 220.173 110.076C217.065 108.3 214.623 105.833 212.847 102.676C211.071 99.4693 210.183 95.7693 210.183 91.576C210.183 87.432 211.096 83.7567 212.921 80.55C214.746 77.3433 217.238 74.8767 220.395 73.15C223.552 71.4233 227.08 70.56 230.977 70.56C234.874 70.56 238.402 71.4233 241.559 73.15C244.716 74.8767 247.208 77.3433 249.033 80.55C250.858 83.7567 251.771 87.432 251.771 91.576C251.771 95.72 250.834 99.3953 248.959 102.602C247.084 105.809 244.519 108.3 241.263 110.076C238.056 111.803 234.504 112.666 230.607 112.666ZM230.607 105.34C232.778 105.34 234.8 104.822 236.675 103.786C238.599 102.75 240.153 101.196 241.337 99.124C242.521 97.052 243.113 94.536 243.113 91.576C243.113 88.616 242.546 86.1247 241.411 84.102C240.276 82.03 238.772 80.476 236.897 79.44C235.022 78.404 233 77.886 230.829 77.886C228.658 77.886 226.636 78.404 224.761 79.44C222.936 80.476 221.48 82.03 220.395 84.102C219.31 86.1247 218.767 88.616 218.767 91.576C218.767 95.9667 219.877 99.3707 222.097 101.788C224.366 104.156 227.203 105.34 230.607 105.34ZM257.299 91.428C257.299 87.3333 258.137 83.7073 259.815 80.55C261.541 77.3927 263.86 74.9507 266.771 73.224C269.731 71.448 273.011 70.56 276.613 70.56C279.277 70.56 281.891 71.152 284.457 72.336C287.071 73.4707 289.143 75 290.673 76.924V57.24H299.183V112H290.673V105.858C289.291 107.831 287.367 109.459 284.901 110.742C282.483 112.025 279.696 112.666 276.539 112.666C272.987 112.666 269.731 111.778 266.771 110.002C263.86 108.177 261.541 105.661 259.815 102.454C258.137 99.198 257.299 95.5227 257.299 91.428ZM290.673 91.576C290.673 88.764 290.081 86.322 288.897 84.25C287.762 82.178 286.257 80.5993 284.383 79.514C282.508 78.4287 280.485 77.886 278.315 77.886C276.144 77.886 274.121 78.4287 272.247 79.514C270.372 80.55 268.843 82.104 267.659 84.176C266.524 86.1987 265.957 88.616 265.957 91.428C265.957 94.24 266.524 96.7067 267.659 98.828C268.843 100.949 270.372 102.577 272.247 103.712C274.171 104.797 276.193 105.34 278.315 105.34C280.485 105.34 282.508 104.797 284.383 103.712C286.257 102.627 287.762 101.048 288.897 98.976C290.081 96.8547 290.673 94.388 290.673 91.576ZM347.633 90.614C347.633 92.1433 347.534 93.5247 347.337 94.758H316.183C316.43 98.014 317.638 100.629 319.809 102.602C321.98 104.575 324.644 105.562 327.801 105.562C332.34 105.562 335.546 103.663 337.421 99.864H346.523C345.29 103.613 343.045 106.697 339.789 109.114C336.582 111.482 332.586 112.666 327.801 112.666C323.904 112.666 320.401 111.803 317.293 110.076C314.234 108.3 311.817 105.833 310.041 102.676C308.314 99.4693 307.451 95.7693 307.451 91.576C307.451 87.3827 308.29 83.7073 309.967 80.55C311.694 77.3433 314.086 74.8767 317.145 73.15C320.253 71.4233 323.805 70.56 327.801 70.56C331.649 70.56 335.078 71.3987 338.087 73.076C341.096 74.7533 343.44 77.1213 345.117 80.18C346.794 83.1893 347.633 86.6673 347.633 90.614ZM338.827 87.95C338.778 84.842 337.668 82.3507 335.497 80.476C333.326 78.6013 330.638 77.664 327.431 77.664C324.52 77.664 322.029 78.6013 319.957 80.476C317.885 82.3013 316.652 84.7927 316.257 87.95H338.827ZM377.025 70.56C380.133 70.56 382.895 71.226 385.313 72.558C387.779 73.89 389.703 75.8633 391.085 78.478C392.515 81.0927 393.231 84.25 393.231 87.95V112H384.869V89.208C384.869 85.5573 383.956 82.77 382.131 80.846C380.305 78.8727 377.814 77.886 374.657 77.886C371.499 77.886 368.983 78.8727 367.109 80.846C365.283 82.77 364.371 85.5573 364.371 89.208V112H355.935V57.24H364.371V75.962C365.801 74.2353 367.602 72.9033 369.773 71.966C371.993 71.0287 374.41 70.56 377.025 70.56ZM421.677 112.666C417.829 112.666 414.351 111.803 411.243 110.076C408.135 108.3 405.693 105.833 403.917 102.676C402.141 99.4693 401.253 95.7693 401.253 91.576C401.253 87.432 402.166 83.7567 403.991 80.55C405.817 77.3433 408.308 74.8767 411.465 73.15C414.623 71.4233 418.15 70.56 422.047 70.56C425.945 70.56 429.472 71.4233 432.629 73.15C435.787 74.8767 438.278 77.3433 440.103 80.55C441.929 83.7567 442.841 87.432 442.841 91.576C442.841 95.72 441.904 99.3953 440.029 102.602C438.155 105.809 435.589 108.3 432.333 110.076C429.127 111.803 425.575 112.666 421.677 112.666ZM421.677 105.34C423.848 105.34 425.871 104.822 427.745 103.786C429.669 102.75 431.223 101.196 432.407 99.124C433.591 97.052 434.183 94.536 434.183 91.576C434.183 88.616 433.616 86.1247 432.481 84.102C431.347 82.03 429.842 80.476 427.967 79.44C426.093 78.404 424.07 77.886 421.899 77.886C419.729 77.886 417.706 78.404 415.831 79.44C414.006 80.476 412.551 82.03 411.465 84.102C410.38 86.1247 409.837 88.616 409.837 91.576C409.837 95.9667 410.947 99.3707 413.167 101.788C415.437 104.156 418.273 105.34 421.677 105.34ZM488.107 71.226V112H479.671V107.19C478.339 108.867 476.588 110.199 474.417 111.186C472.296 112.123 470.026 112.592 467.609 112.592C464.402 112.592 461.516 111.926 458.951 110.594C456.435 109.262 454.437 107.289 452.957 104.674C451.526 102.059 450.811 98.902 450.811 95.202V71.226H459.173V93.944C459.173 97.5947 460.086 100.407 461.911 102.38C463.736 104.304 466.228 105.266 469.385 105.266C472.542 105.266 475.034 104.304 476.859 102.38C478.734 100.407 479.671 97.5947 479.671 93.944V71.226H488.107ZM514.038 112.666C510.831 112.666 507.945 112.099 505.38 110.964C502.864 109.78 500.866 108.201 499.386 106.228C497.906 104.205 497.116 101.961 497.018 99.494H505.75C505.898 101.221 506.712 102.676 508.192 103.86C509.721 104.995 511.62 105.562 513.89 105.562C516.258 105.562 518.083 105.118 519.366 104.23C520.698 103.293 521.364 102.109 521.364 100.678C521.364 99.1487 520.624 98.014 519.144 97.274C517.713 96.534 515.419 95.72 512.262 94.832C509.203 93.9933 506.712 93.1793 504.788 92.39C502.864 91.6007 501.186 90.392 499.756 88.764C498.374 87.136 497.684 84.99 497.684 82.326C497.684 80.1553 498.325 78.182 499.608 76.406C500.89 74.5807 502.716 73.15 505.084 72.114C507.501 71.078 510.264 70.56 513.372 70.56C518.009 70.56 521.734 71.744 524.546 74.112C527.407 76.4307 528.936 79.6127 529.134 83.658H520.698C520.55 81.8327 519.81 80.3773 518.478 79.292C517.146 78.2067 515.345 77.664 513.076 77.664C510.856 77.664 509.154 78.0833 507.97 78.922C506.786 79.7607 506.194 80.8707 506.194 82.252C506.194 83.3373 506.588 84.25 507.378 84.99C508.167 85.73 509.129 86.322 510.264 86.766C511.398 87.1607 513.076 87.6787 515.296 88.32C518.256 89.1093 520.673 89.9233 522.548 90.762C524.472 91.5513 526.124 92.7353 527.506 94.314C528.887 95.8927 529.602 97.9893 529.652 100.604C529.652 102.923 529.01 104.995 527.728 106.82C526.445 108.645 524.62 110.076 522.252 111.112C519.933 112.148 517.195 112.666 514.038 112.666ZM576.137 90.614C576.137 92.1433 576.038 93.5247 575.841 94.758H544.687C544.933 98.014 546.142 100.629 548.313 102.602C550.483 104.575 553.147 105.562 556.305 105.562C560.843 105.562 564.05 103.663 565.925 99.864H575.027C573.793 103.613 571.549 106.697 568.293 109.114C565.086 111.482 561.09 112.666 556.305 112.666C552.407 112.666 548.905 111.803 545.797 110.076C542.738 108.3 540.321 105.833 538.545 102.676C536.818 99.4693 535.955 95.7693 535.955 91.576C535.955 87.3827 536.793 83.7073 538.471 80.55C540.197 77.3433 542.59 74.8767 545.649 73.15C548.757 71.4233 552.309 70.56 556.305 70.56C560.153 70.56 563.581 71.3987 566.591 73.076C569.6 74.7533 571.943 77.1213 573.621 80.18C575.298 83.1893 576.137 86.6673 576.137 90.614ZM567.331 87.95C567.281 84.842 566.171 82.3507 564.001 80.476C561.83 78.6013 559.141 77.664 555.935 77.664C553.024 77.664 550.533 78.6013 548.461 80.476C546.389 82.3013 545.155 84.7927 544.761 87.95H567.331Z" fill="black"/>
</svg>
