<svg width="500" height="141" viewBox="0 0 500 141" fill="none" xmlns="http://www.w3.org/2000/svg">
<circle cx="70.5" cy="70.5" r="70.5" fill="black"/>
<path d="M20.2061 69.6992L47.7158 80.8174V89.4307L11.7686 72.7754V66.3594L47.7158 49.748V58.3613L20.2061 69.6992Z" fill="white"/>
<path d="M118.926 75.4355L89.8779 64.0537V55.7041L127.407 72.3154V78.7314L89.8779 95.3867V86.9492L118.926 75.4355Z" fill="white"/>
<path d="M61.2334 106.493H54.2461L80.9648 37.0156H87.9082L61.2334 106.493Z" fill="white"/>
<path d="M156.776 108.752C156.776 106.032 157.32 103.648 158.408 101.6C159.528 99.52 161.064 97.92 163.016 96.8C164.968 95.68 167.208 95.12 169.736 95.12C172.936 95.12 175.576 95.888 177.656 97.424C179.768 98.928 181.192 101.088 181.928 103.904H176.024C175.544 102.592 174.776 101.568 173.72 100.832C172.664 100.096 171.336 99.728 169.736 99.728C167.496 99.728 165.704 100.528 164.36 102.128C163.048 103.696 162.392 105.904 162.392 108.752C162.392 111.6 163.048 113.824 164.36 115.424C165.704 117.024 167.496 117.824 169.736 117.824C172.904 117.824 175 116.432 176.024 113.648H181.928C181.16 116.336 179.72 118.48 177.608 120.08C175.496 121.648 172.872 122.432 169.736 122.432C167.208 122.432 164.968 121.872 163.016 120.752C161.064 119.6 159.528 118 158.408 115.952C157.32 113.872 156.776 111.472 156.776 108.752ZM198.853 122.432C196.357 122.432 194.101 121.872 192.085 120.752C190.069 119.6 188.485 118 187.333 115.952C186.181 113.872 185.605 111.472 185.605 108.752C185.605 106.064 186.197 103.68 187.381 101.6C188.565 99.52 190.181 97.92 192.229 96.8C194.277 95.68 196.565 95.12 199.093 95.12C201.621 95.12 203.909 95.68 205.957 96.8C208.005 97.92 209.621 99.52 210.805 101.6C211.989 103.68 212.581 106.064 212.581 108.752C212.581 111.44 211.973 113.824 210.757 115.904C209.541 117.984 207.877 119.6 205.765 120.752C203.685 121.872 201.381 122.432 198.853 122.432ZM198.853 117.68C200.261 117.68 201.573 117.344 202.789 116.672C204.037 116 205.045 114.992 205.813 113.648C206.581 112.304 206.965 110.672 206.965 108.752C206.965 106.832 206.597 105.216 205.861 103.904C205.125 102.56 204.149 101.552 202.933 100.88C201.717 100.208 200.405 99.872 198.997 99.872C197.589 99.872 196.277 100.208 195.061 100.88C193.877 101.552 192.933 102.56 192.229 103.904C191.525 105.216 191.173 106.832 191.173 108.752C191.173 111.6 191.893 113.808 193.333 115.376C194.805 116.912 196.645 117.68 198.853 117.68ZM216.167 108.656C216.167 106 216.711 103.648 217.799 101.6C218.919 99.552 220.423 97.968 222.311 96.848C224.231 95.696 226.359 95.12 228.695 95.12C230.423 95.12 232.119 95.504 233.783 96.272C235.479 97.008 236.823 98 237.815 99.248V86.48H243.335V122H237.815V118.016C236.919 119.296 235.671 120.352 234.071 121.184C232.503 122.016 230.695 122.432 228.647 122.432C226.343 122.432 224.231 121.856 222.311 120.704C220.423 119.52 218.919 117.888 217.799 115.808C216.711 113.696 216.167 111.312 216.167 108.656ZM237.815 108.752C237.815 106.928 237.431 105.344 236.663 104C235.927 102.656 234.951 101.632 233.735 100.928C232.519 100.224 231.207 99.872 229.799 99.872C228.391 99.872 227.079 100.224 225.863 100.928C224.647 101.6 223.655 102.608 222.887 103.952C222.151 105.264 221.783 106.832 221.783 108.656C221.783 110.48 222.151 112.08 222.887 113.456C223.655 114.832 224.647 115.888 225.863 116.624C227.111 117.328 228.423 117.68 229.799 117.68C231.207 117.68 232.519 117.328 233.735 116.624C234.951 115.92 235.927 114.896 236.663 113.552C237.431 112.176 237.815 110.576 237.815 108.752ZM274.762 108.128C274.762 109.12 274.698 110.016 274.57 110.816H254.362C254.522 112.928 255.306 114.624 256.714 115.904C258.122 117.184 259.85 117.824 261.898 117.824C264.842 117.824 266.922 116.592 268.138 114.128H274.042C273.242 116.56 271.786 118.56 269.674 120.128C267.594 121.664 265.002 122.432 261.898 122.432C259.37 122.432 257.098 121.872 255.082 120.752C253.098 119.6 251.53 118 250.378 115.952C249.258 113.872 248.698 111.472 248.698 108.752C248.698 106.032 249.242 103.648 250.33 101.6C251.45 99.52 253.002 97.92 254.986 96.8C257.002 95.68 259.306 95.12 261.898 95.12C264.394 95.12 266.618 95.664 268.57 96.752C270.522 97.84 272.042 99.376 273.13 101.36C274.218 103.312 274.762 105.568 274.762 108.128ZM269.05 106.4C269.018 104.384 268.298 102.768 266.89 101.552C265.482 100.336 263.738 99.728 261.658 99.728C259.77 99.728 258.154 100.336 256.81 101.552C255.466 102.736 254.666 104.352 254.41 106.4H269.05ZM293.827 95.12C295.843 95.12 297.635 95.552 299.203 96.416C300.803 97.28 302.051 98.56 302.947 100.256C303.875 101.952 304.339 104 304.339 106.4V122H298.915V107.216C298.915 104.848 298.323 103.04 297.139 101.792C295.955 100.512 294.339 99.872 292.291 99.872C290.243 99.872 288.611 100.512 287.395 101.792C286.211 103.04 285.619 104.848 285.619 107.216V122H280.147V86.48H285.619V98.624C286.547 97.504 287.715 96.64 289.123 96.032C290.563 95.424 292.131 95.12 293.827 95.12ZM322.791 122.432C320.295 122.432 318.039 121.872 316.023 120.752C314.007 119.6 312.423 118 311.271 115.952C310.119 113.872 309.543 111.472 309.543 108.752C309.543 106.064 310.135 103.68 311.319 101.6C312.503 99.52 314.119 97.92 316.167 96.8C318.215 95.68 320.503 95.12 323.031 95.12C325.559 95.12 327.847 95.68 329.895 96.8C331.943 97.92 333.559 99.52 334.743 101.6C335.927 103.68 336.519 106.064 336.519 108.752C336.519 111.44 335.911 113.824 334.695 115.904C333.479 117.984 331.815 119.6 329.703 120.752C327.623 121.872 325.319 122.432 322.791 122.432ZM322.791 117.68C324.199 117.68 325.511 117.344 326.727 116.672C327.975 116 328.983 114.992 329.751 113.648C330.519 112.304 330.903 110.672 330.903 108.752C330.903 106.832 330.535 105.216 329.799 103.904C329.063 102.56 328.087 101.552 326.871 100.88C325.655 100.208 324.343 99.872 322.935 99.872C321.527 99.872 320.215 100.208 318.999 100.88C317.815 101.552 316.871 102.56 316.167 103.904C315.463 105.216 315.111 106.832 315.111 108.752C315.111 111.6 315.831 113.808 317.271 115.376C318.743 116.912 320.583 117.68 322.791 117.68ZM365.88 95.552V122H360.408V118.88C359.544 119.968 358.408 120.832 357 121.472C355.624 122.08 354.152 122.384 352.584 122.384C350.504 122.384 348.632 121.952 346.968 121.088C345.336 120.224 344.04 118.944 343.08 117.248C342.152 115.552 341.688 113.504 341.688 111.104V95.552H347.112V110.288C347.112 112.656 347.704 114.48 348.888 115.76C350.072 117.008 351.688 117.632 353.736 117.632C355.784 117.632 357.4 117.008 358.584 115.76C359.8 114.48 360.408 112.656 360.408 110.288V95.552H365.88ZM382.7 122.432C380.62 122.432 378.748 122.064 377.084 121.328C375.452 120.56 374.156 119.536 373.196 118.256C372.236 116.944 371.724 115.488 371.66 113.888H377.324C377.42 115.008 377.948 115.952 378.908 116.72C379.9 117.456 381.132 117.824 382.604 117.824C384.14 117.824 385.324 117.536 386.156 116.96C387.02 116.352 387.452 115.584 387.452 114.656C387.452 113.664 386.972 112.928 386.012 112.448C385.084 111.968 383.596 111.44 381.548 110.864C379.564 110.32 377.948 109.792 376.7 109.28C375.452 108.768 374.364 107.984 373.436 106.928C372.54 105.872 372.092 104.48 372.092 102.752C372.092 101.344 372.508 100.064 373.34 98.912C374.172 97.728 375.356 96.8 376.892 96.128C378.46 95.456 380.252 95.12 382.268 95.12C385.276 95.12 387.692 95.888 389.516 97.424C391.372 98.928 392.364 100.992 392.492 103.616H387.02C386.924 102.432 386.444 101.488 385.58 100.784C384.716 100.08 383.548 99.728 382.076 99.728C380.636 99.728 379.532 100 378.764 100.544C377.996 101.088 377.612 101.808 377.612 102.704C377.612 103.408 377.868 104 378.38 104.48C378.892 104.96 379.516 105.344 380.252 105.632C380.988 105.888 382.076 106.224 383.516 106.64C385.436 107.152 387.004 107.68 388.22 108.224C389.468 108.736 390.54 109.504 391.436 110.528C392.332 111.552 392.796 112.912 392.828 114.608C392.828 116.112 392.412 117.456 391.58 118.64C390.748 119.824 389.564 120.752 388.028 121.424C386.524 122.096 384.748 122.432 382.7 122.432ZM422.981 108.128C422.981 109.12 422.917 110.016 422.789 110.816H402.581C402.741 112.928 403.525 114.624 404.933 115.904C406.341 117.184 408.069 117.824 410.117 117.824C413.061 117.824 415.141 116.592 416.357 114.128H422.261C421.461 116.56 420.005 118.56 417.893 120.128C415.813 121.664 413.221 122.432 410.117 122.432C407.589 122.432 405.317 121.872 403.301 120.752C401.317 119.6 399.749 118 398.597 115.952C397.477 113.872 396.917 111.472 396.917 108.752C396.917 106.032 397.461 103.648 398.549 101.6C399.669 99.52 401.221 97.92 403.205 96.8C405.221 95.68 407.525 95.12 410.117 95.12C412.613 95.12 414.837 95.664 416.789 96.752C418.741 97.84 420.261 99.376 421.349 101.36C422.437 103.312 422.981 105.568 422.981 108.128ZM417.269 106.4C417.237 104.384 416.517 102.768 415.109 101.552C413.701 100.336 411.957 99.728 409.877 99.728C407.989 99.728 406.373 100.336 405.029 101.552C403.685 102.736 402.885 104.352 402.629 106.4H417.269Z" fill="black"/>
</svg>
